<?xml version="1.0" encoding="UTF-8"?>
<svg xmlns="http://www.w3.org/2000/svg" xmlns:xlink="http://www.w3.org/1999/xlink" width="375pt" height="374.999991pt" viewBox="0 0 375 374.999991" version="1.2">
<defs>
<clipPath id="clip1">
  <path d="M 113 121 L 262.5 121 L 262.5 255.09375 L 113 255.09375 Z M 113 121 "/>
</clipPath>
</defs>
<g id="surface1">
<g clip-path="url(#clip1)" clip-rule="nonzero">
<path style=" stroke:none;fill-rule:nonzero;fill:rgb(0%,0%,0%);fill-opacity:1;" d="M 249.738281 123.238281 C 250.085938 122.890625 250.464844 122.578125 250.871094 122.304688 C 251.28125 122.03125 251.710938 121.800781 252.167969 121.609375 C 252.621094 121.421875 253.089844 121.277344 253.574219 121.183594 C 254.058594 121.085938 254.542969 121.039062 255.039062 121.039062 C 255.53125 121.039062 256.019531 121.085938 256.5 121.183594 C 256.984375 121.277344 257.453125 121.421875 257.90625 121.609375 C 258.363281 121.800781 258.792969 122.03125 259.203125 122.304688 C 259.609375 122.578125 259.988281 122.890625 260.335938 123.238281 C 260.683594 123.585938 260.996094 123.960938 261.273438 124.371094 C 261.546875 124.777344 261.78125 125.207031 261.96875 125.660156 C 262.160156 126.113281 262.300781 126.582031 262.398438 127.0625 C 262.496094 127.546875 262.542969 128.03125 262.542969 128.523438 C 262.542969 129.015625 262.496094 129.5 262.398438 129.984375 C 262.300781 130.464844 262.160156 130.933594 261.96875 131.386719 C 261.78125 131.839844 261.546875 132.269531 261.273438 132.675781 C 260.996094 133.085938 260.683594 133.460938 260.335938 133.808594 L 193.171875 200.785156 C 192.824219 201.132812 192.445312 201.445312 192.039062 201.71875 C 191.628906 201.992188 191.199219 202.226562 190.742188 202.414062 C 190.289062 202.601562 189.820312 202.746094 189.335938 202.84375 C 188.855469 202.9375 188.367188 202.988281 187.875 202.988281 C 187.378906 202.988281 186.894531 202.9375 186.410156 202.84375 C 185.925781 202.746094 185.457031 202.601562 185.003906 202.414062 C 184.546875 202.226562 184.117188 201.992188 183.707031 201.71875 C 183.300781 201.445312 182.921875 201.132812 182.574219 200.785156 L 115.410156 133.808594 C 115.0625 133.460938 114.75 133.082031 114.480469 132.675781 C 114.207031 132.265625 113.972656 131.835938 113.785156 131.382812 C 113.597656 130.929688 113.457031 130.460938 113.359375 129.980469 C 113.265625 129.5 113.214844 129.015625 113.214844 128.523438 C 113.214844 128.03125 113.265625 127.546875 113.359375 127.066406 C 113.457031 126.585938 113.597656 126.117188 113.785156 125.664062 C 113.972656 125.210938 114.207031 124.78125 114.480469 124.371094 C 114.75 123.964844 115.0625 123.585938 115.410156 123.238281 C 115.757812 122.894531 116.136719 122.582031 116.546875 122.308594 C 116.953125 122.039062 117.386719 121.808594 117.839844 121.621094 C 118.296875 121.433594 118.765625 121.289062 119.246094 121.195312 C 119.730469 121.097656 120.21875 121.050781 120.707031 121.050781 C 121.199219 121.050781 121.6875 121.097656 122.171875 121.195312 C 122.652344 121.289062 123.121094 121.433594 123.578125 121.621094 C 124.03125 121.808594 124.460938 122.039062 124.871094 122.308594 C 125.28125 122.582031 125.660156 122.894531 126.007812 123.238281 L 187.875 185.007812 Z M 187.875 237.101562 L 126.007812 175.332031 C 125.660156 174.988281 125.28125 174.675781 124.871094 174.40625 C 124.460938 174.132812 124.03125 173.902344 123.578125 173.714844 C 123.121094 173.527344 122.652344 173.382812 122.171875 173.289062 C 121.6875 173.191406 121.199219 173.144531 120.707031 173.144531 C 120.21875 173.144531 119.730469 173.191406 119.246094 173.289062 C 118.765625 173.382812 118.296875 173.527344 117.839844 173.714844 C 117.386719 173.902344 116.953125 174.132812 116.546875 174.40625 C 116.136719 174.675781 115.757812 174.988281 115.410156 175.332031 C 115.0625 175.679688 114.75 176.058594 114.480469 176.464844 C 114.207031 176.875 113.972656 177.304688 113.785156 177.757812 C 113.597656 178.210938 113.457031 178.679688 113.359375 179.160156 C 113.265625 179.640625 113.214844 180.125 113.214844 180.617188 C 113.214844 181.109375 113.265625 181.59375 113.359375 182.074219 C 113.457031 182.554688 113.597656 183.023438 113.785156 183.476562 C 113.972656 183.929688 114.207031 184.359375 114.480469 184.769531 C 114.75 185.175781 115.0625 185.554688 115.410156 185.902344 L 182.574219 252.878906 C 182.921875 253.226562 183.300781 253.539062 183.707031 253.8125 C 184.117188 254.085938 184.546875 254.320312 185.003906 254.507812 C 185.457031 254.695312 185.925781 254.839844 186.410156 254.9375 C 186.894531 255.03125 187.378906 255.082031 187.875 255.082031 C 188.367188 255.082031 188.851562 255.03125 189.335938 254.9375 C 189.820312 254.839844 190.289062 254.695312 190.742188 254.507812 C 191.199219 254.320312 191.628906 254.085938 192.039062 253.8125 C 192.445312 253.539062 192.824219 253.226562 193.171875 252.878906 L 260.335938 185.902344 C 260.6875 185.554688 260.996094 185.179688 261.273438 184.769531 C 261.546875 184.363281 261.78125 183.933594 261.96875 183.480469 C 262.160156 183.027344 262.300781 182.558594 262.398438 182.078125 C 262.496094 181.59375 262.542969 181.109375 262.542969 180.617188 C 262.542969 180.125 262.496094 179.640625 262.398438 179.15625 C 262.300781 178.675781 262.160156 178.207031 261.96875 177.753906 C 261.78125 177.300781 261.546875 176.871094 261.273438 176.464844 C 260.996094 176.054688 260.6875 175.679688 260.335938 175.332031 C 259.988281 174.984375 259.609375 174.671875 259.203125 174.398438 C 258.792969 174.125 258.363281 173.894531 257.90625 173.703125 C 257.453125 173.515625 256.984375 173.375 256.5 173.277344 C 256.019531 173.179688 255.53125 173.132812 255.039062 173.132812 C 254.542969 173.132812 254.058594 173.179688 253.574219 173.277344 C 253.089844 173.375 252.621094 173.515625 252.167969 173.703125 C 251.710938 173.894531 251.28125 174.125 250.871094 174.398438 C 250.464844 174.671875 250.085938 174.984375 249.738281 175.332031 Z M 187.875 237.101562 "/>
</g>
</g>
</svg>
